<svg version="1.1" id="Layer_1" xmlns="http://www.w3.org/2000/svg" xmlns:xlink="http://www.w3.org/1999/xlink" x="0px" y="0px"
	 width="100%" viewBox="0 0 1080 1080" enable-background="new 0 0 1080 1080" xml:space="preserve">
<path opacity="1.000000" stroke="none" 
	d="
M584.000000,1081.000000 
	C389.355743,1081.000000 195.211472,1081.000000 1.033609,1081.000000 
	C1.033609,721.063965 1.033609,361.127899 1.033609,1.095922 
	C360.894470,1.095922 720.788940,1.095922 1080.841797,1.095922 
	C1080.841797,360.999939 1080.841797,720.999939 1080.841797,1081.000000 
	C915.460754,1081.000000 749.980408,1081.000000 584.000000,1081.000000 
M670.923340,109.448799 
	C670.577454,109.618385 670.231506,109.787971 669.267212,110.218033 
	C653.256714,123.895668 635.776550,134.738037 614.789734,139.093338 
	C592.545349,143.709625 572.080139,140.080276 553.207520,127.105965 
	C542.005066,119.404709 531.587097,110.860619 523.577576,99.901672 
	C514.966858,88.120148 506.724274,76.022453 499.091095,63.589966 
	C493.940216,55.200558 490.123047,45.992294 485.461853,36.654591 
	C484.244110,38.831783 483.136627,40.582485 482.247833,42.437935 
	C476.160309,55.146069 470.716492,68.206001 463.921448,80.521500 
	C453.871521,98.736275 440.710968,114.452927 423.256165,126.286324 
	C404.999146,138.663605 384.960175,143.802139 363.314636,139.806198 
	C342.939148,136.044724 324.730621,126.779175 308.030243,114.559944 
	C305.073181,112.396317 301.952087,110.456825 298.906738,108.413826 
	C298.504517,108.859116 298.102295,109.304413 297.700073,109.749702 
	C298.311859,111.185440 298.918152,112.623543 299.536316,114.056534 
	C306.012726,129.070038 312.534943,144.063950 318.957092,159.100616 
	C326.201935,176.063568 333.395233,193.048874 340.514374,210.064850 
	C341.717743,212.941101 343.196899,214.111923 346.629608,214.106949 
	C439.259613,213.972794 531.889893,213.966690 624.519775,214.125290 
	C628.113831,214.131454 629.395874,212.644531 630.550049,209.935440 
	C643.172302,180.306564 655.877991,150.712952 668.383240,121.034813 
	C669.841736,117.573288 670.229797,113.660736 670.923340,109.448799 
M692.787720,285.306488 
	C691.872620,284.832825 690.957520,284.359161 689.804321,283.320465 
	C689.217407,283.175903 688.630432,283.031311 687.719910,282.253662 
	C687.135254,281.986572 686.548828,281.723297 685.966248,281.451752 
	C678.256409,277.858490 670.547119,274.264008 662.663269,270.205170 
	C662.663269,270.205170 662.168457,270.166687 661.611511,269.974976 
	C660.740967,269.705536 659.870361,269.436096 658.307922,268.826141 
	C656.928101,268.272980 655.548279,267.719849 653.611511,266.974976 
	C652.740967,266.705536 651.870361,266.436096 650.304810,265.823639 
	C646.939697,264.758148 643.590942,263.637268 640.206726,262.636414 
	C622.280457,257.334961 603.900208,254.174255 585.279297,254.123489 
	C488.181702,253.858704 391.082947,253.999008 293.984589,254.006958 
	C291.989838,254.007126 289.995087,254.111099 287.132935,254.059494 
	C286.755280,256.002930 286.047180,257.946320 286.046814,259.889832 
	C285.997559,519.921448 285.999939,779.953003 286.000977,1039.984619 
	C286.000977,1041.483765 285.838165,1043.016602 286.113861,1044.464844 
	C286.219666,1045.020630 287.341461,1045.382935 288.927612,1045.978882 
	C316.622101,1045.930420 344.316559,1045.881958 372.528442,1045.905029 
	C372.630066,1045.609741 372.731689,1045.314575 372.978729,1044.089600 
	C372.978729,928.168640 372.978729,812.247681 372.978729,696.316772 
	C391.959076,696.316772 410.352203,696.316772 429.000000,696.316772 
	C429.000000,698.610291 429.000000,700.588928 429.000000,702.567566 
	C429.000000,814.719421 428.999146,926.871338 429.006958,1039.023193 
	C429.007080,1041.019043 429.111084,1043.015015 429.094940,1045.528320 
	C429.390167,1045.630005 429.685394,1045.731689 430.910461,1045.978760 
	C556.219666,1045.985840 681.528809,1046.006592 806.837891,1045.885132 
	C808.974548,1045.883057 811.615967,1044.677124 813.165955,1043.159058 
	C826.854614,1029.751587 840.372620,1016.169128 853.894775,1002.592346 
	C867.638123,988.793396 881.328918,974.942261 895.551270,960.923340 
	C895.381714,960.577454 895.212097,960.231506 894.564880,959.160278 
	C892.567810,959.106873 890.570801,959.006836 888.573730,959.006714 
	C766.419128,958.999268 644.264526,959.000000 522.109924,959.000000 
	C520.173279,959.000000 518.236633,959.000000 516.319214,959.000000 
	C516.319214,871.029358 516.319214,783.640991 516.319214,696.000000 
	C525.615173,696.000000 534.600952,695.804504 543.567383,696.134216 
	C545.877197,696.219055 548.642273,697.417358 550.317383,699.023132 
	C559.458008,707.785095 568.327942,716.829651 577.283325,725.784668 
	C641.624390,790.123474 705.954956,854.472778 770.356201,918.751343 
	C771.845703,920.238037 774.120972,921.857544 776.034607,921.863708 
	C815.359680,921.989258 854.685425,921.888855 894.528381,921.905029 
	C894.630066,921.609863 894.731750,921.314636 894.970337,920.321045 
	C893.741882,918.808838 892.637146,917.172913 891.267151,915.802246 
	C814.682068,839.181030 738.074402,762.582336 661.474976,685.975464 
	C660.158203,684.658630 658.915833,683.267273 658.159180,682.463440 
	C669.798767,676.613342 681.264282,671.577515 692.003967,665.299805 
	C713.593018,652.680359 732.095276,636.285645 748.335571,617.248352 
	C759.167786,604.550537 768.804932,590.982483 775.795532,575.928223 
	C782.315796,561.887024 788.033020,547.331360 792.510498,532.520569 
	C797.571899,515.778015 799.931213,498.350494 799.942139,480.764221 
	C799.947266,472.503418 799.742249,464.200226 798.897766,455.991821 
	C797.831055,445.622467 796.620178,435.197632 794.393372,425.032867 
	C790.006897,405.009521 782.674133,386.007599 772.591125,368.097351 
	C763.833862,352.542023 753.796509,337.896973 741.410706,325.016144 
	C734.638184,317.972931 727.719421,310.951294 720.114136,304.859436 
	C711.531494,297.984802 702.103699,292.165192 692.787720,285.306488 
z"/>
<path fill="#F9B233" opacity="1.000000" stroke="none" 
	d="
M894.011047,921.833374 
	C854.685425,921.888855 815.359680,921.989258 776.034607,921.863708 
	C774.120972,921.857544 771.845703,920.238037 770.356201,918.751343 
	C705.954956,854.472778 641.624390,790.123474 577.283325,725.784668 
	C568.327942,716.829651 559.458008,707.785095 550.317383,699.023132 
	C548.642273,697.417358 545.877197,696.219055 543.567383,696.134216 
	C534.600952,695.804504 525.615173,696.000000 516.319214,696.000000 
	C516.319214,783.640991 516.319214,871.029358 516.319214,959.000000 
	C518.236633,959.000000 520.173279,959.000000 522.109924,959.000000 
	C644.264526,959.000000 766.419128,958.999268 888.573730,959.006714 
	C890.570801,959.006836 892.567810,959.106873 894.793823,959.830078 
	C895.029419,960.704590 895.036133,960.909302 895.042786,961.114014 
	C881.328918,974.942261 867.638123,988.793396 853.894775,1002.592346 
	C840.372620,1016.169128 826.854614,1029.751587 813.165955,1043.159058 
	C811.615967,1044.677124 808.974548,1045.883057 806.837891,1045.885132 
	C681.528809,1046.006592 556.219666,1045.985840 430.327393,1045.752319 
	C429.573181,1045.330200 429.380615,1045.158569 429.166656,1045.010864 
	C429.111084,1043.015015 429.007080,1041.019043 429.006958,1039.023193 
	C428.999146,926.871338 429.000000,814.719421 429.000000,702.567566 
	C429.000000,700.588928 429.000000,698.610291 429.000000,696.316772 
	C410.352203,696.316772 391.959076,696.316772 372.978729,696.316772 
	C372.978729,812.247681 372.978729,928.168640 372.752319,1044.672607 
	C372.330231,1045.426758 372.158600,1045.619385 372.011047,1045.833496 
	C344.316559,1045.881958 316.622101,1045.930420 288.463806,1045.447998 
	C288.000122,781.333679 288.000214,517.750183 288.000336,254.166656 
	C289.995087,254.111099 291.989838,254.007126 293.984589,254.006958 
	C391.082947,253.999008 488.181702,253.858704 585.279297,254.123489 
	C603.900208,254.174255 622.280457,257.334961 640.206726,262.636414 
	C643.590942,263.637268 646.939697,264.758148 650.734436,266.303345 
	C652.165527,266.910889 653.166992,267.038788 654.168457,267.166687 
	C655.548279,267.719849 656.928101,268.272980 658.735962,269.304565 
	C660.165527,269.910919 661.166992,270.038818 662.168457,270.166687 
	C662.168457,270.166687 662.663269,270.205170 662.945801,270.762451 
	C670.913208,275.450592 678.588562,279.599335 686.313538,283.653687 
	C686.660461,283.835754 687.456604,283.161926 688.043518,282.886749 
	C688.630432,283.031311 689.217407,283.175903 689.939209,283.938934 
	C691.063965,285.000519 692.053711,285.443634 693.043518,285.886719 
	C702.103699,292.165192 711.531494,297.984802 720.114136,304.859436 
	C727.719421,310.951294 734.638184,317.972931 741.410706,325.016144 
	C753.796509,337.896973 763.833862,352.542023 772.591125,368.097351 
	C782.674133,386.007599 790.006897,405.009521 794.393372,425.032867 
	C796.620178,435.197632 797.831055,445.622467 798.897766,455.991821 
	C799.742249,464.200226 799.947266,472.503418 799.942139,480.764221 
	C799.931213,498.350494 797.571899,515.778015 792.510498,532.520569 
	C788.033020,547.331360 782.315796,561.887024 775.795532,575.928223 
	C768.804932,590.982483 759.167786,604.550537 748.335571,617.248352 
	C732.095276,636.285645 713.593018,652.680359 692.003967,665.299805 
	C681.264282,671.577515 669.798767,676.613342 658.159180,682.463440 
	C658.915833,683.267273 660.158203,684.658630 661.474976,685.975464 
	C738.074402,762.582336 814.682068,839.181030 891.267151,915.802246 
	C892.637146,917.172913 893.741882,918.808838 894.748169,920.788330 
	C894.330139,921.426697 894.158508,921.619263 894.011047,921.833374 
M693.972778,550.976868 
	C693.972778,550.976868 693.902344,550.942444 694.550598,550.748962 
	C695.013367,549.801392 695.476135,548.853760 695.972778,547.976868 
	C695.972778,547.976868 695.902344,547.942444 696.550598,547.748962 
	C697.013367,546.801392 697.476135,545.853760 697.972839,544.976929 
	C697.972839,544.976929 697.902405,544.942383 698.576294,544.764465 
	C699.697144,542.478394 700.817993,540.192261 701.972839,537.976929 
	C701.972839,537.976929 701.902405,537.942383 702.571655,537.767334 
	C703.776611,536.038696 705.367798,534.462036 706.118286,532.554565 
	C709.035461,525.140320 712.075745,517.737366 714.350098,510.115387 
	C718.467834,496.316254 719.626404,482.094269 718.916687,467.737244 
	C718.853760,466.465698 717.774048,465.244385 717.010193,463.244446 
	C716.729004,462.550446 716.447876,461.856476 716.770569,460.782043 
	C716.569275,459.521271 716.367981,458.260529 716.010132,456.244049 
	C715.729004,455.549713 715.447876,454.855347 715.732605,453.835602 
	C715.543945,452.890320 715.355286,451.945038 715.010071,450.243530 
	C714.728943,449.548615 714.447815,448.853668 714.654053,447.906769 
	C714.491577,447.271118 714.329102,446.635437 714.003662,445.204620 
	C713.681580,444.463440 713.256287,443.749481 713.052246,442.977142 
	C702.948425,404.725128 680.678223,375.913757 645.889282,357.029755 
	C624.953552,345.665497 602.308899,340.967590 578.592102,340.995422 
	C559.425964,341.017914 540.259766,340.994873 521.093628,341.009308 
	C519.487610,341.010529 517.881714,341.143524 516.331726,341.212799 
	C516.331726,430.653595 516.331726,519.713074 516.331726,609.000000 
	C528.644592,609.000000 540.633301,609.245239 552.608032,608.941528 
	C569.797546,608.505615 587.032471,608.311646 604.145935,606.833374 
	C623.278442,605.180847 640.614441,597.439209 656.354736,586.835205 
	C665.816711,580.460754 674.082092,572.310181 683.538330,564.756897 
	C684.011169,563.800049 684.484009,562.843201 685.171387,561.317871 
	C686.075989,560.531189 686.980591,559.744507 688.538330,558.756897 
	C689.011169,557.800049 689.484009,556.843201 690.143433,555.349548 
	C690.724060,554.885620 691.304626,554.421753 692.535950,553.759949 
	C693.003601,552.808716 693.471252,551.857422 693.972778,550.976868 
M428.983948,342.140594 
	C427.535004,341.760406 426.090790,341.073944 424.636353,341.051605 
	C417.313934,340.939148 409.988831,341.000000 402.664673,341.000000 
	C392.898560,340.999969 383.132477,341.000000 373.354309,341.000000 
	C373.354309,430.617889 373.354309,519.717773 373.354309,608.997375 
	C391.341400,608.997375 408.974731,609.011292 426.607880,608.955017 
	C427.461792,608.952271 428.313751,608.332581 429.839661,607.637390 
	C430.226379,605.756897 430.938019,603.878235 430.948700,601.995605 
	C431.038544,586.177979 431.000000,570.359619 431.000000,554.541443 
	C431.000031,486.273651 431.017487,418.005829 430.922882,349.738190 
	C430.919769,347.491241 429.777771,345.245850 428.983948,342.140594 
z"/>
<path fill="#F9B233" opacity="1.000000" stroke="none" 
	d="
M671.114136,109.957275 
	C670.229797,113.660736 669.841736,117.573288 668.383240,121.034813 
	C655.877991,150.712952 643.172302,180.306564 630.550049,209.935440 
	C629.395874,212.644531 628.113831,214.131454 624.519775,214.125290 
	C531.889893,213.966690 439.259613,213.972794 346.629608,214.106949 
	C343.196899,214.111923 341.717743,212.941101 340.514374,210.064850 
	C333.395233,193.048874 326.201935,176.063568 318.957092,159.100616 
	C312.534943,144.063950 306.012726,129.070038 299.536316,114.056534 
	C298.918152,112.623543 298.311859,111.185440 297.700073,109.749702 
	C298.102295,109.304413 298.504517,108.859116 298.906738,108.413826 
	C301.952087,110.456825 305.073181,112.396317 308.030243,114.559944 
	C324.730621,126.779175 342.939148,136.044724 363.314636,139.806198 
	C384.960175,143.802139 404.999146,138.663605 423.256165,126.286324 
	C440.710968,114.452927 453.871521,98.736275 463.921448,80.521500 
	C470.716492,68.206001 476.160309,55.146069 482.247833,42.437935 
	C483.136627,40.582485 484.244110,38.831783 485.461853,36.654591 
	C490.123047,45.992294 493.940216,55.200558 499.091095,63.589966 
	C506.724274,76.022453 514.966858,88.120148 523.577576,99.901672 
	C531.587097,110.860619 542.005066,119.404709 553.207520,127.105965 
	C572.080139,140.080276 592.545349,143.709625 614.789734,139.093338 
	C635.776550,134.738037 653.256714,123.895668 669.883545,110.097641 
	C670.704651,109.970589 670.909363,109.963936 671.114136,109.957275 
z"/>
<path fill="#F9B233" opacity="1.000000" stroke="none" 
	d="
M287.566650,254.113068 
	C288.000214,517.750183 288.000122,781.333679 288.000183,1045.375244 
	C287.341461,1045.382935 286.219666,1045.020630 286.113861,1044.464844 
	C285.838165,1043.016602 286.000977,1041.483765 286.000977,1039.984619 
	C285.999939,779.953003 285.997559,519.921448 286.046814,259.889832 
	C286.047180,257.946320 286.755280,256.002930 287.566650,254.113068 
z"/>
<path fill="#F9B233" opacity="1.000000" stroke="none" 
	d="
M687.881714,282.570190 
	C687.456604,283.161926 686.660461,283.835754 686.313538,283.653687 
	C678.588562,279.599335 670.913208,275.450592 663.033081,270.994781 
	C670.547119,274.264008 678.256409,277.858490 685.966248,281.451752 
	C686.548828,281.723297 687.135254,281.986572 687.881714,282.570190 
z"/>
<path fill="#F9B233" opacity="1.000000" stroke="none" 
	d="
M692.915649,285.596619 
	C692.053711,285.443634 691.063965,285.000519 690.058289,284.221436 
	C690.957520,284.359161 691.872620,284.832825 692.915649,285.596619 
z"/>
<path fill="#F9B233" opacity="1.000000" stroke="none" 
	d="
M661.890015,270.070831 
	C661.166992,270.038818 660.165527,269.910919 659.081909,269.474854 
	C659.870361,269.436096 660.740967,269.705536 661.890015,270.070831 
z"/>
<path fill="#F9B233" opacity="1.000000" stroke="none" 
	d="
M653.890015,267.070831 
	C653.166992,267.038788 652.165527,266.910889 651.081909,266.474854 
	C651.870361,266.436096 652.740967,266.705536 653.890015,267.070831 
z"/>
<path fill="#F9B233" opacity="1.000000" stroke="none" 
	d="
M429.130798,1045.269531 
	C429.380615,1045.158569 429.573181,1045.330200 429.862488,1045.679688 
	C429.685394,1045.731689 429.390167,1045.630005 429.130798,1045.269531 
z"/>
<path fill="#F9B233" opacity="1.000000" stroke="none" 
	d="
M372.269745,1045.869141 
	C372.158600,1045.619385 372.330231,1045.426758 372.679626,1045.137451 
	C372.731689,1045.314575 372.630066,1045.609741 372.269745,1045.869141 
z"/>
<path fill="#F9B233" opacity="1.000000" stroke="none" 
	d="
M895.296997,961.018677 
	C895.036133,960.909302 895.029419,960.704590 895.032593,960.192749 
	C895.212097,960.231506 895.381714,960.577454 895.296997,961.018677 
z"/>
<path fill="#F9B233" opacity="1.000000" stroke="none" 
	d="
M894.269714,921.869202 
	C894.158508,921.619263 894.330139,921.426697 894.679688,921.137573 
	C894.731750,921.314636 894.630066,921.609863 894.269714,921.869202 
z"/>
<path fill="#F9B233" opacity="1.000000" stroke="none" 
	d="
M671.018677,109.703033 
	C670.909363,109.963936 670.704651,109.970589 670.192749,109.967407 
	C670.231506,109.787971 670.577454,109.618385 671.018677,109.703033 
z"/>
<path opacity="1.000000" stroke="none" 
	d="
M687.885254,558.957825 
	C686.980591,559.744507 686.075989,560.531189 684.759277,561.732544 
	C683.859863,563.084167 683.372559,564.020996 682.885254,564.957825 
	C674.082092,572.310181 665.816711,580.460754 656.354736,586.835205 
	C640.614441,597.439209 623.278442,605.180847 604.145935,606.833374 
	C587.032471,608.311646 569.797546,608.505615 552.608032,608.941528 
	C540.633301,609.245239 528.644592,609.000000 516.331726,609.000000 
	C516.331726,519.713074 516.331726,430.653595 516.331726,341.212799 
	C517.881714,341.143524 519.487610,341.010529 521.093628,341.009308 
	C540.259766,340.994873 559.425964,341.017914 578.592102,340.995422 
	C602.308899,340.967590 624.953552,345.665497 645.889282,357.029755 
	C680.678223,375.913757 702.948425,404.725128 713.052246,442.977142 
	C713.256287,443.749481 713.681580,444.463440 714.012817,445.867310 
	C714.070251,447.072876 714.118530,447.615814 714.166748,448.158722 
	C714.447815,448.853668 714.728943,449.548615 715.015869,450.932861 
	C715.070007,452.468475 715.118408,453.314758 715.166748,454.161011 
	C715.447876,454.855347 715.729004,455.549713 716.015869,456.964294 
	C716.069946,458.843842 716.118347,460.003143 716.166748,461.162476 
	C716.447876,461.856476 716.729004,462.550446 717.015747,464.085815 
	C717.418579,479.437103 717.148010,493.958496 712.884216,507.934509 
	C709.780823,518.107117 705.601807,527.951599 701.902344,537.942383 
	C701.902405,537.942383 701.972839,537.976929 701.635010,538.084229 
	C700.165527,540.441772 699.033936,542.692078 697.902405,544.942383 
	C697.902405,544.942383 697.972839,544.976929 697.653076,545.067993 
	C696.856262,546.086853 696.379272,547.014648 695.902344,547.942444 
	C695.902344,547.942444 695.972778,547.976868 695.653076,548.067993 
	C694.856323,549.086914 694.379333,550.014709 693.902344,550.942444 
	C693.902344,550.942444 693.972778,550.976868 693.651917,551.068970 
	C692.849121,552.093323 692.367188,553.025574 691.885254,553.957825 
	C691.304626,554.421753 690.724060,554.885620 689.745239,555.748413 
	C688.859802,557.084106 688.372498,558.020935 687.885254,558.957825 
z"/>
<opacity="1.000000" stroke="none" 
	d="
M429.166656,608.000244 
	C428.313751,608.332581 427.461792,608.952271 426.607880,608.955017 
	C408.974731,609.011292 391.341400,608.997375 373.354309,608.997375 
	C373.354309,519.717773 373.354309,430.617889 373.354309,341.000000 
	C383.132477,341.000000 392.898560,340.999969 402.664673,341.000000 
	C409.988831,341.000000 417.313934,340.939148 424.636353,341.051605 
	C426.090790,341.073944 427.535004,341.760406 429.002625,343.033875 
	C429.014282,430.956940 429.006714,517.986694 429.007172,605.016479 
	C429.007172,606.011047 429.111206,607.005676 429.166656,608.000244 
z"/>
<path fill="#F9B233" opacity="1.000000" stroke="none" 
	d="
M429.503174,607.818848 
	C429.111206,607.005676 429.007172,606.011047 429.007172,605.016479 
	C429.006714,517.986694 429.014282,430.956940 429.093964,343.463440 
	C429.777771,345.245850 430.919769,347.491241 430.922882,349.738190 
	C431.017487,418.005829 431.000031,486.273651 431.000000,554.541443 
	C431.000000,570.359619 431.038544,586.177979 430.948700,601.995605 
	C430.938019,603.878235 430.226379,605.756897 429.503174,607.818848 
z"/>
<path fill="#F9B233" opacity="1.000000" stroke="none" 
	d="
M702.237000,537.854858 
	C705.601807,527.951599 709.780823,518.107117 712.884216,507.934509 
	C717.148010,493.958496 717.418579,479.437103 717.093933,464.463470 
	C717.774048,465.244385 718.853760,466.465698 718.916687,467.737244 
	C719.626404,482.094269 718.467834,496.316254 714.350098,510.115387 
	C712.075745,517.737366 709.035461,525.140320 706.118286,532.554565 
	C705.367798,534.462036 703.776611,536.038696 702.237000,537.854858 
z"/>
<path fill="#F9B233" opacity="1.000000" stroke="none" 
	d="
M698.239380,544.853394 
	C699.033936,542.692078 700.165527,540.441772 701.618042,538.048828 
	C700.817993,540.192261 699.697144,542.478394 698.239380,544.853394 
z"/>
<path fill="#F9B233" opacity="1.000000" stroke="none" 
	d="
M716.468628,460.972260 
	C716.118347,460.003143 716.069946,458.843842 716.094116,457.342133 
	C716.367981,458.260529 716.569275,459.521271 716.468628,460.972260 
z"/>
<path fill="#F9B233" opacity="1.000000" stroke="none" 
	d="
M715.449707,453.998291 
	C715.118408,453.314758 715.070007,452.468475 715.094177,451.310974 
	C715.355286,451.945038 715.543945,452.890320 715.449707,453.998291 
z"/>
<path fill="#F9B233" opacity="1.000000" stroke="none" 
	d="
M696.226440,547.845703 
	C696.379272,547.014648 696.856262,546.086853 697.636108,545.032654 
	C697.476135,545.853760 697.013367,546.801392 696.226440,547.845703 
z"/>
<path fill="#F9B233" opacity="1.000000" stroke="none" 
	d="
M694.226501,550.845703 
	C694.379333,550.014709 694.856323,549.086914 695.636108,548.032654 
	C695.476135,548.853760 695.013367,549.801392 694.226501,550.845703 
z"/>
<path fill="#F9B233" opacity="1.000000" stroke="none" 
	d="
M692.210571,553.858887 
	C692.367188,553.025574 692.849121,552.093323 693.635010,551.033630 
	C693.471252,551.857422 693.003601,552.808716 692.210571,553.858887 
z"/>
<path fill="#F9B233" opacity="1.000000" stroke="none" 
	d="
M688.211792,558.857361 
	C688.372498,558.020935 688.859802,557.084106 689.651978,556.016846 
	C689.484009,556.843201 689.011169,557.800049 688.211792,558.857361 
z"/>
<path fill="#F9B233" opacity="1.000000" stroke="none" 
	d="
M683.211792,564.857361 
	C683.372559,564.020996 683.859863,563.084167 684.651978,562.016846 
	C684.484009,562.843201 684.011169,563.800049 683.211792,564.857361 
z"/>
<path fill="#F9B233" opacity="1.000000" stroke="none" 
	d="
M714.410400,448.032745 
	C714.118530,447.615814 714.070251,447.072876 714.094299,446.264893 
	C714.329102,446.635437 714.491577,447.271118 714.410400,448.032745 
z"/>
</svg>